<svg width="129" height="36" viewBox="0 0 129 36" fill="none" xmlns="http://www.w3.org/2000/svg">
<path d="M26.875 0.875V23.3516C26.875 27.0859 25.7031 30.0391 23.3594 32.2109C21.0312 34.3828 17.8438 35.4688 13.7969 35.4688C9.8125 35.4688 6.64844 34.4141 4.30469 32.3047C1.96094 30.1953 0.765625 27.2969 0.71875 23.6094V0.875H7.75V23.3984C7.75 25.6328 8.28125 27.2656 9.34375 28.2969C10.4219 29.3125 11.9062 29.8203 13.7969 29.8203C17.75 29.8203 19.7578 27.7422 19.8203 23.5859V0.875H26.875Z" fill="#585A8B"/>
<path d="M45.2734 22.5078H39.6719V35H32.6406V0.875H45.3203C49.3516 0.875 52.4609 1.77344 54.6484 3.57031C56.8359 5.36719 57.9297 7.90625 57.9297 11.1875C57.9297 13.5156 57.4219 15.4609 56.4062 17.0234C55.4062 18.5703 53.8828 19.8047 51.8359 20.7266L59.2188 34.6719V35H51.6719L45.2734 22.5078ZM39.6719 16.8125H45.3438C47.1094 16.8125 48.4766 16.3672 49.4453 15.4766C50.4141 14.5703 50.8984 13.3281 50.8984 11.75C50.8984 10.1406 50.4375 8.875 49.5156 7.95312C48.6094 7.03125 47.2109 6.57031 45.3203 6.57031H39.6719V16.8125ZM74.5234 35.4688C70.8047 35.4688 67.7734 34.3281 65.4297 32.0469C63.1016 29.7656 61.9375 26.7266 61.9375 22.9297V22.2734C61.9375 19.7266 62.4297 17.4531 63.4141 15.4531C64.3984 13.4375 65.7891 11.8906 67.5859 10.8125C69.3984 9.71875 71.4609 9.17188 73.7734 9.17188C77.2422 9.17188 79.9688 10.2656 81.9531 12.4531C83.9531 14.6406 84.9531 17.7422 84.9531 21.7578V24.5234H68.8047C69.0234 26.1797 69.6797 27.5078 70.7734 28.5078C71.8828 29.5078 73.2812 30.0078 74.9688 30.0078C77.5781 30.0078 79.6172 29.0625 81.0859 27.1719L84.4141 30.8984C83.3984 32.3359 82.0234 33.4609 80.2891 34.2734C78.5547 35.0703 76.6328 35.4688 74.5234 35.4688ZM73.75 14.6562C72.4062 14.6562 71.3125 15.1094 70.4688 16.0156C69.6406 16.9219 69.1094 18.2188 68.875 19.9062H78.2969V19.3672C78.2656 17.8672 77.8594 16.7109 77.0781 15.8984C76.2969 15.0703 75.1875 14.6562 73.75 14.6562ZM95.0547 9.64062L95.2656 12.5703C97.0781 10.3047 99.5078 9.17188 102.555 9.17188C105.242 9.17188 107.242 9.96094 108.555 11.5391C109.867 13.1172 110.539 15.4766 110.57 18.6172V35H103.797V18.7812C103.797 17.3438 103.484 16.3047 102.859 15.6641C102.234 15.0078 101.195 14.6797 99.7422 14.6797C97.8359 14.6797 96.4062 15.4922 95.4531 17.1172V35H88.6797V9.64062H95.0547ZM123.836 3.40625V9.64062H128.172V14.6094H123.836V27.2656C123.836 28.2031 124.016 28.875 124.375 29.2812C124.734 29.6875 125.422 29.8906 126.438 29.8906C127.188 29.8906 127.852 29.8359 128.43 29.7266V34.8594C127.102 35.2656 125.734 35.4688 124.328 35.4688C119.578 35.4688 117.156 33.0703 117.062 28.2734V14.6094H113.359V9.64062H117.062V3.40625H123.836Z" fill="#8E8DB1"/>
</svg>
